<svg width="433" height="90" viewBox="0 0 433 90" fill="none" xmlns="http://www.w3.org/2000/svg">
<g clip-path="url(#clip0_3504_125)">
<path d="M55.2466 15.0031C75.1775 19.3657 161.113 81.1394 281.015 72.0346C381.223 64.4251 392.392 6.11204 429.425 15.0031" stroke="#FF6C2E" stroke-width="15.9"/>
<path d="M19.7 70.7317C15.3667 70.7317 11.3333 70.3984 7.6 69.7317C3.86667 68.9984 0.8 67.9984 -1.6 66.7317L1.7 51.2317C4.43333 52.6317 7.53333 53.765 11 54.6317C14.4667 55.4984 17.8 55.9317 21 55.9317C24.3333 55.9317 26.9 55.665 28.7 55.1317C30.5 54.5317 31.6333 53.2317 32.1 51.2317C32.1667 50.965 32.2 50.6317 32.2 50.2317C32.2 48.565 31.1667 47.3317 29.1 46.5317C27.0333 45.7317 23.9667 44.6317 19.9 43.2317C15.3667 41.6317 11.9333 39.6984 9.6 37.4317C7.26667 35.0984 6.1 32.0984 6.1 28.4317C6.1 27.6984 6.13333 26.965 6.2 26.2317C6.26667 25.4317 6.4 24.5984 6.6 23.7317C7.93333 17.3984 11.0667 12.5984 16 9.3317C21 5.99837 28.2 4.3317 37.6 4.3317C41.1333 4.3317 44.7 4.6317 48.3 5.2317C51.9667 5.8317 54.8667 6.49837 57 7.2317L53.7 22.8317C50.8333 21.565 48.0333 20.665 45.3 20.1317C42.5667 19.5984 39.9333 19.3317 37.4 19.3317C34.4667 19.3317 31.9 19.565 29.7 20.0317C27.5667 20.4984 26.2667 21.6984 25.8 23.6317C25.7333 23.8317 25.7 24.1317 25.7 24.5317C25.7 25.7984 26.5333 26.765 28.2 27.4317C29.8667 28.0984 32.6333 29.0317 36.5 30.2317C42.3 31.965 46.3333 34.0984 48.6 36.6317C50.8667 39.165 52 42.165 52 45.6317C52 46.4984 51.9333 47.3984 51.8 48.3317C51.6667 49.265 51.5 50.2317 51.3 51.2317C50.5 55.0984 48.9333 58.4984 46.6 61.4317C44.3333 64.365 41.0333 66.665 36.7 68.3317C32.3667 69.9317 26.7 70.7317 19.7 70.7317ZM49.9664 91.3317L64.4664 22.3317H80.7664L80.8664 26.1317C83.1331 24.5984 85.4997 23.4317 87.9664 22.6317C90.4331 21.765 93.1997 21.3317 96.2664 21.3317C101.8 21.3317 106.133 22.7317 109.266 25.5317C112.466 28.3317 114.066 32.5984 114.066 38.3317C114.066 40.665 113.766 43.2317 113.166 46.0317C111.366 54.4984 108.233 60.7317 103.766 64.7317C99.3664 68.7317 93.0997 70.7317 84.9664 70.7317C80.2997 70.7317 76.4997 69.8317 73.5664 68.0317L68.6664 91.3317H49.9664ZM83.0664 57.0317C85.7997 57.0317 88.0997 56.165 89.9664 54.4317C91.8331 52.6984 93.1997 49.7984 94.0664 45.7317C94.1997 44.865 94.2997 44.065 94.3664 43.3317C94.4997 42.5984 94.5664 41.8984 94.5664 41.2317C94.5664 38.965 93.9997 37.365 92.8664 36.4317C91.7997 35.4984 90.1664 35.0317 87.9664 35.0317C84.8997 35.0317 82.2331 35.965 79.9664 37.8317L76.4664 54.6317C77.8664 56.2317 80.0664 57.0317 83.0664 57.0317ZM140.606 70.7317C133.34 70.7317 127.673 69.1984 123.606 66.1317C119.54 62.9984 117.506 58.4317 117.506 52.4317C117.506 51.4317 117.54 50.3984 117.606 49.3317C117.74 48.265 117.94 47.165 118.206 46.0317C119.94 38.0317 123.44 31.9317 128.706 27.7317C133.973 23.465 141.44 21.3317 151.106 21.3317C158.84 21.3317 164.673 22.965 168.606 26.2317C172.54 29.4984 174.506 33.9984 174.506 39.7317C174.506 40.7317 174.44 41.765 174.306 42.8317C174.24 43.8317 174.073 44.8984 173.806 46.0317C172.14 54.0984 168.573 60.2317 163.106 64.4317C157.64 68.6317 150.14 70.7317 140.606 70.7317ZM143.506 57.0317C146.573 57.0317 148.973 56.165 150.706 54.4317C152.506 52.6984 153.806 49.8984 154.606 46.0317C155.006 44.2317 155.206 42.6317 155.206 41.2317C155.206 39.0984 154.64 37.5317 153.506 36.5317C152.44 35.5317 150.673 35.0317 148.206 35.0317C145.206 35.0317 142.84 35.9317 141.106 37.7317C139.44 39.465 138.206 42.2317 137.406 46.0317C137.006 48.0317 136.806 49.7317 136.806 51.1317C136.806 53.1984 137.306 54.6984 138.306 55.6317C139.373 56.565 141.106 57.0317 143.506 57.0317ZM175.951 69.7317L185.951 22.3317H204.051L203.751 26.1317C205.951 24.9984 208.651 23.965 211.851 23.0317C215.051 22.0984 218.184 21.5317 221.251 21.3317L218.351 35.3317C216.617 35.465 214.684 35.6984 212.551 36.0317C210.417 36.365 208.351 36.7984 206.351 37.3317C204.351 37.7984 202.651 38.3317 201.251 38.9317L194.751 69.7317H175.951ZM236.478 70.7317C231.611 70.7317 227.911 69.5984 225.378 67.3317C222.845 65.065 221.578 61.9317 221.578 57.9317C221.578 56.3984 221.778 54.7317 222.178 52.9317L225.778 36.2317H219.578L222.478 22.3317H228.678L230.778 12.6317L250.478 8.1317L247.478 22.3317H258.378L254.778 36.2317H244.578L241.278 51.5317C241.078 52.3984 240.978 53.1317 240.978 53.7317C240.978 55.065 241.411 55.965 242.278 56.4317C243.211 56.8317 244.511 57.0317 246.178 57.0317C248.111 57.0317 250.178 56.6984 252.378 56.0317L249.678 68.5317C245.878 69.9984 241.478 70.7317 236.478 70.7317ZM270.264 70.7317C265.797 70.7317 262.431 69.8984 260.164 68.2317C257.964 66.565 256.864 63.965 256.864 60.4317C256.864 58.8984 257.064 57.2317 257.464 55.4317L268.764 2.3317H287.564L276.664 53.3317C276.597 53.5984 276.531 53.865 276.464 54.1317C276.464 54.3984 276.464 54.6317 276.464 54.8317C276.464 55.6984 276.697 56.2984 277.164 56.6317C277.697 56.8984 278.497 57.0317 279.564 57.0317C280.431 57.0317 281.297 56.965 282.164 56.8317C283.031 56.6984 283.864 56.4984 284.664 56.2317L282.064 68.7317C280.197 69.3984 278.397 69.8984 276.664 70.2317C274.931 70.565 272.797 70.7317 270.264 70.7317ZM297.682 16.0317L300.582 2.4317H320.882L317.982 16.0317H297.682ZM287.782 69.7317L294.882 36.0317H287.982L292.482 22.3317H316.582L306.582 69.7317H287.782ZM318.297 69.7317L325.397 36.2317H319.297L322.197 22.3317H328.297L328.997 19.2317C329.797 15.6317 331.064 12.465 332.797 9.7317C334.597 6.9317 336.997 4.7317 339.997 3.1317C343.064 1.5317 346.83 0.731699 351.297 0.731699C353.897 0.731699 356.164 0.9317 358.097 1.3317C360.03 1.7317 361.83 2.29837 363.497 3.0317L360.897 15.2317C360.03 14.8984 359.13 14.6317 358.197 14.4317C357.264 14.2317 356.264 14.1317 355.197 14.1317C352.797 14.1317 351.03 14.565 349.897 15.4317C348.83 16.2984 348.097 17.6984 347.697 19.6317L347.097 22.3317H358.297L354.597 36.2317H344.197L337.097 69.7317H318.297ZM376.846 70.7317C369.779 70.7317 364.079 69.1984 359.746 66.1317C355.479 62.9984 353.346 58.3984 353.346 52.3317C353.346 51.3984 353.379 50.3984 353.446 49.3317C353.579 48.265 353.779 47.1984 354.046 46.1317C355.646 38.5984 358.946 32.5984 363.946 28.1317C368.946 23.5984 375.879 21.3317 384.746 21.3317C391.279 21.3317 396.346 22.9317 399.946 26.1317C403.546 29.265 405.346 33.3984 405.346 38.5317C405.346 39.265 405.313 40.0317 405.246 40.8317C405.179 41.6317 405.046 42.465 404.846 43.3317L403.046 51.6317H370.146C370.213 54.0984 371.213 55.8984 373.146 57.0317C375.079 58.0984 378.713 58.6317 384.046 58.6317C386.779 58.6317 389.546 58.3984 392.346 57.9317C395.213 57.3984 397.579 56.7984 399.446 56.1317L397.046 67.4317C391.979 69.6317 385.246 70.7317 376.846 70.7317ZM372.346 41.4317H389.046L389.346 39.7317C389.413 39.3984 389.446 39.0984 389.446 38.8317C389.513 38.565 389.546 38.2984 389.546 38.0317C389.546 36.6317 389.046 35.4984 388.046 34.6317C387.046 33.765 385.313 33.3317 382.846 33.3317C379.579 33.3317 377.146 34.0317 375.546 35.4317C373.946 36.765 372.879 38.765 372.346 41.4317Z" fill="white"/>
</g>
<defs>
<clipPath id="clip0_3504_125">
<rect width="433" height="90" fill="white"/>
</clipPath>
</defs>
</svg>
